<svg width="350" height="41" viewBox="0 0 350 41" fill="none" xmlns="http://www.w3.org/2000/svg">
<path d="M9.56826 40.423C7.50452 40.423 5.98798 39.9373 5.01865 38.9659C4.04931 38.0258 3.56465 36.2867 3.56465 33.7485C3.56465 32.9024 3.58028 32.1504 3.61155 31.4923C3.67409 30.8343 3.73662 30.2075 3.79916 29.6122C3.8617 28.9855 3.9086 28.3744 3.93987 27.779C4.00241 27.1523 4.03368 26.4629 4.03368 25.7109C4.03368 25.3035 3.95551 24.8962 3.79916 24.4888C3.67409 24.0814 3.4552 23.7211 3.14252 23.4077C2.82983 23.063 2.4077 22.7967 1.87613 22.6087C1.37583 22.3893 0.750452 22.264 0 22.2326V18.1903C0.750452 18.159 1.37583 18.0493 1.87613 17.8613C2.4077 17.642 2.82983 17.3756 3.14252 17.0623C3.4552 16.7176 3.67409 16.3415 3.79916 15.9342C3.95551 15.5268 4.03368 15.1194 4.03368 14.7121C4.03368 13.96 4.00241 13.2863 3.93987 12.6909C3.9086 12.0642 3.8617 11.4532 3.79916 10.8578C3.73662 10.2311 3.67409 9.5887 3.61155 8.93065C3.58028 8.2726 3.56465 7.52055 3.56465 6.67449C3.56465 4.1363 4.04931 2.39717 5.01865 1.4571C5.98798 0.485702 7.50452 0 9.56826 0H12.5232V3.66627H11.632C10.6627 3.66627 10.006 3.90128 9.66207 4.37132C9.31811 4.81002 9.14613 5.67175 9.14613 6.95651C9.14613 8.24127 9.1774 9.47903 9.23994 10.6698C9.30247 11.8605 9.33374 13.1766 9.33374 14.6181C9.33374 16.4042 9.05232 17.7046 8.48948 18.5194C7.92664 19.3027 7.05112 19.8355 5.8629 20.1175V20.3055C7.05112 20.5875 7.92664 21.1359 8.48948 21.9506C9.05232 22.734 9.33374 24.0188 9.33374 25.8049C9.33374 27.2463 9.30247 28.5624 9.23994 29.7532C9.1774 30.9439 9.14613 32.1817 9.14613 33.4664C9.14613 34.7512 9.31811 35.6129 9.66207 36.0516C10.006 36.5217 10.6627 36.7567 11.632 36.7567H12.5232V40.423H9.56826Z" fill="#063B40"/>
<path d="M18.2805 33.2784V2.63219H37.5578V8.46062H25.1753V15.5581H35.7754V21.3866H25.1753V33.2784H18.2805Z" fill="#063B40"/>
<path d="M44.9879 22.4206L44.0029 8.03759L43.7684 1.78613H50.7101L50.4756 8.03759L49.4906 22.4206H44.9879ZM47.2392 33.8425C46.051 33.8425 45.0504 33.4351 44.2374 32.6204C43.4557 31.7743 43.0649 30.7402 43.0649 29.5182C43.0649 28.2647 43.4557 27.2307 44.2374 26.4159C45.0504 25.5699 46.051 25.1468 47.2392 25.1468C48.4275 25.1468 49.4124 25.5699 50.1941 26.4159C51.0071 27.2307 51.4136 28.2647 51.4136 29.5182C51.4136 30.7402 51.0071 31.7743 50.1941 32.6204C49.4124 33.4351 48.4275 33.8425 47.2392 33.8425Z" fill="#063B40"/>
<path d="M57.363 40.423V36.7567H58.2542C59.2235 36.7567 59.8801 36.5217 60.2241 36.0516C60.5681 35.6129 60.74 34.7512 60.74 33.4664C60.74 32.1817 60.7088 30.9439 60.6462 29.7532C60.5837 28.5624 60.5524 27.2463 60.5524 25.8049C60.5524 24.0188 60.8339 22.734 61.3967 21.9506C61.9595 21.1359 62.8351 20.5875 64.0233 20.3055V20.1175C62.8351 19.8355 61.9595 19.3027 61.3967 18.5194C60.8339 17.7046 60.5524 16.4042 60.5524 14.6181C60.5524 13.1766 60.5837 11.8605 60.6462 10.6698C60.7088 9.47903 60.74 8.24127 60.74 6.95651C60.74 5.67175 60.5681 4.81002 60.2241 4.37132C59.8801 3.90128 59.2235 3.66627 58.2542 3.66627H57.363V0H60.3179C62.3817 0 63.8982 0.485702 64.8675 1.4571C65.8369 2.39717 66.3215 4.1363 66.3215 6.67449C66.3215 7.52055 66.2903 8.2726 66.2277 8.93065C66.1964 9.5887 66.1496 10.2311 66.087 10.8578C66.0245 11.4532 65.9619 12.0642 65.8994 12.6909C65.8681 13.2863 65.8525 13.96 65.8525 14.7121C65.8525 15.1194 65.915 15.5268 66.0401 15.9342C66.1965 16.3415 66.431 16.7176 66.7437 17.0623C67.0563 17.3756 67.4628 17.642 67.9631 17.8613C68.4947 18.0493 69.1357 18.159 69.8862 18.1903V22.2326C69.1357 22.264 68.4947 22.3893 67.9631 22.6087C67.4628 22.7967 67.0563 23.063 66.7437 23.4077C66.431 23.7211 66.1965 24.0814 66.0401 24.4888C65.915 24.8962 65.8525 25.3035 65.8525 25.7109C65.8525 26.4629 65.8681 27.1523 65.8994 27.779C65.9619 28.3744 66.0245 28.9855 66.087 29.6122C66.1496 30.2075 66.1964 30.8343 66.2277 31.4923C66.2903 32.1504 66.3215 32.9024 66.3215 33.7485C66.3215 36.2867 65.8369 38.0258 64.8675 38.9659C63.8982 39.9373 62.3817 40.423 60.3179 40.423H57.363Z" fill="#063B40"/>
<path d="M87.5218 33.7332C83.5554 33.7332 80.526 32.5647 78.4334 30.2275C76.3409 27.8904 75.2947 24.1665 75.2947 19.056V2.69593H82.2281V19.7571C82.2281 22.7486 82.6809 24.8365 83.5867 26.0207C84.4924 27.2048 85.8041 27.7969 87.5218 27.7969C89.2396 27.7969 90.5669 27.2048 91.5039 26.0207C92.4408 24.8365 92.9093 22.7486 92.9093 19.7571V2.69593H99.5616V19.056C99.5616 24.1665 98.5309 27.8904 96.4697 30.2275C94.4396 32.5647 91.457 33.7332 87.5218 33.7332Z" fill="#35B9C4"/>
<path d="M106.637 33.1723V2.69593H113.524V27.3762H125.611V33.1723H106.637Z" fill="#35B9C4"/>
<path d="M130.885 33.1723V2.69593H137.771V27.3762H149.858V33.1723H130.885Z" fill="#35B9C4"/>
<path d="M163.128 33.7332C161.129 33.7332 159.13 33.3749 157.131 32.6582C155.163 31.9103 153.399 30.804 151.837 29.3394L155.773 24.6184C156.866 25.5532 158.068 26.3167 159.38 26.9088C160.723 27.5008 162.034 27.7969 163.315 27.7969C164.752 27.7969 165.813 27.532 166.501 27.0023C167.219 26.4725 167.578 25.7558 167.578 24.8521C167.578 24.3846 167.469 23.9795 167.25 23.6368C167.063 23.294 166.766 22.9979 166.36 22.7486C165.985 22.4682 165.517 22.2189 164.955 22.0008C164.424 21.7515 163.83 21.4866 163.174 21.2061L159.192 19.5234C158.412 19.2118 157.646 18.8067 156.897 18.3081C156.179 17.8095 155.523 17.233 154.929 16.5786C154.367 15.893 153.914 15.114 153.571 14.2414C153.227 13.3377 153.055 12.325 153.055 11.2031C153.055 9.95666 153.321 8.78809 153.852 7.69742C154.383 6.57559 155.132 5.60957 156.1 4.79936C157.069 3.95798 158.209 3.30358 159.52 2.83615C160.863 2.36872 162.331 2.13501 163.924 2.13501C165.704 2.13501 167.453 2.47779 169.171 3.16335C170.92 3.84892 172.45 4.8461 173.762 6.1549L170.248 10.502C169.249 9.72295 168.25 9.13087 167.25 8.72577C166.251 8.2895 165.142 8.07136 163.924 8.07136C162.737 8.07136 161.785 8.32066 161.066 8.81925C160.379 9.28668 160.036 9.95666 160.036 10.8292C160.036 11.2966 160.145 11.7017 160.364 12.0445C160.613 12.3561 160.941 12.6522 161.347 12.9326C161.785 13.1819 162.284 13.4312 162.846 13.6805C163.409 13.8987 164.018 14.1479 164.674 14.4284L168.609 16.0177C170.483 16.7656 171.95 17.7939 173.012 19.1027C174.105 20.4115 174.652 22.141 174.652 24.2912C174.652 25.5688 174.387 26.7841 173.856 27.9371C173.356 29.0589 172.606 30.0561 171.607 30.9287C170.639 31.77 169.436 32.4556 168 32.9854C166.563 33.4839 164.939 33.7332 163.128 33.7332Z" fill="#35B9C4"/>
<path d="M184.871 33.1723V8.49205H176.485V2.69593H200.19V8.49205H191.804V33.1723H184.871Z" fill="#35B9C4"/>
<path d="M210.245 17.7472L209.495 20.5517H216.007L215.304 17.7472C214.867 16.2202 214.445 14.5998 214.039 12.8859C213.633 11.172 213.227 9.52039 212.821 7.93114H212.634C212.259 9.55156 211.869 11.2187 211.463 12.9326C211.088 14.6154 210.682 16.2202 210.245 17.7472ZM199.189 33.1723L208.745 2.69593H217.037L226.594 33.1723H219.286L217.412 25.9272H208.09L206.216 33.1723H199.189Z" fill="#35B9C4"/>
<path d="M242.217 33.7332C240.28 33.7332 238.453 33.406 236.736 32.7516C235.018 32.0661 233.503 31.0689 232.191 29.7601C230.911 28.4513 229.896 26.8309 229.146 24.8988C228.397 22.9356 228.022 20.6764 228.022 18.1211C228.022 15.597 228.412 13.3533 229.193 11.3901C229.974 9.39575 231.02 7.713 232.332 6.34188C233.644 4.97075 235.174 3.92682 236.923 3.2101C238.672 2.49337 240.515 2.13501 242.451 2.13501C244.419 2.13501 246.183 2.54012 247.745 3.35033C249.306 4.12938 250.602 5.04865 251.633 6.10816L247.979 10.502C247.198 9.78527 246.371 9.20878 245.496 8.77251C244.653 8.30508 243.685 8.07136 242.592 8.07136C241.561 8.07136 240.577 8.30508 239.64 8.77251C238.734 9.20878 237.938 9.8476 237.251 10.689C236.595 11.5303 236.064 12.5587 235.658 13.774C235.283 14.9893 235.096 16.3604 235.096 17.8874C235.096 21.0347 235.767 23.481 237.11 25.226C238.453 26.9399 240.249 27.7969 242.498 27.7969C243.747 27.7969 244.856 27.532 245.824 27.0023C246.823 26.4413 247.698 25.7558 248.447 24.9456L252.102 29.2459C249.541 32.2375 246.246 33.7332 242.217 33.7332Z" fill="#35B9C4"/>
<path d="M256.741 33.1723V2.69593H263.627V15.1763H263.815L272.903 2.69593H280.493L271.264 14.8491L282.179 33.1723H274.637L267.188 20.318L263.627 24.9923V33.1723H256.741Z" fill="#35B9C4"/>
<path d="M285.517 33.1723V2.69593H292.404V33.1723H285.517Z" fill="#35B9C4"/>
<path d="M308.931 33.7332C306.932 33.7332 304.933 33.3749 302.934 32.6582C300.967 31.9103 299.202 30.804 297.64 29.3394L301.576 24.6184C302.669 25.5532 303.871 26.3167 305.183 26.9088C306.526 27.5008 307.838 27.7969 309.118 27.7969C310.555 27.7969 311.617 27.532 312.304 27.0023C313.022 26.4725 313.381 25.7558 313.381 24.8521C313.381 24.3846 313.272 23.9795 313.053 23.6368C312.866 23.294 312.569 22.9979 312.163 22.7486C311.788 22.4682 311.32 22.2189 310.758 22.0008C310.227 21.7515 309.633 21.4866 308.978 21.2061L304.995 19.5234C304.215 19.2118 303.45 18.8067 302.7 18.3081C301.982 17.8095 301.326 17.233 300.732 16.5786C300.17 15.893 299.717 15.114 299.374 14.2414C299.03 13.3377 298.859 12.325 298.859 11.2031C298.859 9.95666 299.124 8.78809 299.655 7.69742C300.186 6.57559 300.935 5.60957 301.904 4.79936C302.872 3.95798 304.012 3.30358 305.323 2.83615C306.666 2.36872 308.134 2.13501 309.727 2.13501C311.507 2.13501 313.256 2.47779 314.974 3.16335C316.723 3.84892 318.253 4.8461 319.565 6.1549L316.051 10.502C315.052 9.72295 314.053 9.13087 313.053 8.72577C312.054 8.2895 310.945 8.07136 309.727 8.07136C308.54 8.07136 307.588 8.32066 306.869 8.81925C306.182 9.28668 305.839 9.95666 305.839 10.8292C305.839 11.2966 305.948 11.7017 306.167 12.0445C306.417 12.3561 306.744 12.6522 307.15 12.9326C307.588 13.1819 308.087 13.4312 308.65 13.6805C309.212 13.8987 309.821 14.1479 310.477 14.4284L314.412 16.0177C316.286 16.7656 317.754 17.7939 318.815 19.1027C319.909 20.4115 320.455 22.141 320.455 24.2912C320.455 25.5688 320.19 26.7841 319.659 27.9371C319.159 29.0589 318.409 30.0561 317.41 30.9287C316.442 31.77 315.239 32.4556 313.803 32.9854C312.366 33.4839 310.742 33.7332 308.931 33.7332Z" fill="#35B9C4"/>
<path d="M325.639 33.1723V2.69593H332.526V14.4284H343.067V2.69593H350V33.1723H343.067V20.4582H332.526V33.1723H325.639Z" fill="#35B9C4"/>
</svg>
